<svg xmlns="http://www.w3.org/2000/svg" viewBox="0 0 252.85 357.42"><defs><style>.cls-1{fill:#fff;}</style></defs><title>Asset 2</title><g id="Layer_2" data-name="Layer 2"><g id="Layer_1-2" data-name="Layer 1"><path class="cls-1" d="M144.26,228.23s2.3-49.08,12.31-69.51c1.2-2.44-2,4.36,0,0,4.29-9.36,12.76-36.46,64.11-73.11A44.52,44.52,0,0,0,227,80c7.74-8.27,20.75-36.42,16.1-50.28-3.24-9.68-2.55-28-51.83-18.51C166.12,16,148.29,38.15,145.15,41.59,134.32,53.46,128,70.32,132.39,59.78c-.62,1.25-9.5,17.89,2.42,30.32.84.88,4.09,3.3,2.38,1.85-1.09-.92,3,3.36,9.87,4.79,0,0,10.21.37,14.68-3.48a15.12,15.12,0,0,1,2.66-2c3.67-2.11,11.57-8.35,8.2-21.86,0,0-4.6-9.19-11-8.42s-6.9,15.83-6.9,15.83l-3.57-1s-1.66-12.13,2.3-17.88a8.78,8.78,0,0,1,4.46-4.08c3.2-1.28,7.28,2,7.28,2s10.32,7,11.61,10.77c.26.75.44,1.52.7,2.26,1.21,3.41,2.64,11.68.84,14.67-2.3,3.83-12.89,17.24-20.43,18S127,106.25,120,83.47c-6.92-22.41,8.68-51.77,28.71-65.16,0,0,21.25-13,35.63-15.27,15.57-2.5,21.19-5.36,45.19,0s23.32,38,23.32,38-3.15,38.36-19.92,48.74c.31-.24-25.4,17.51-31.1,22.7-1.94,1.77-22.85,12.39-33.06,35.11s-16.89,77-16.86,80.68c0,3.83-16.85,114.64-16.85,114.64a8.37,8.37,0,0,1-9.44-1.53c-4.3-3.74-37.42-37.81-41.85-48.86A50.75,50.75,0,0,0,80,285.23c-6.39-10.54-11.38-23.93-8.48-17.75,6.46,13.77-2.27-4-7.63-16-.4-.91-1.67-7.47-2.15-8.33l-.1-.18a3,3,0,0,1-.38-1.48V241s-13.07,52.34-18.86,61.37a25.11,25.11,0,0,0-1.73,3.07C38.17,311,31,326.45,26,333.76c-6.13,9-14.47,23.66-14.47,23.66H0c.4-.64,63.91-93.58,64.34-193,0,0,2.55,76.6,13.79,96.51s11.23,31.15,33.19,57.19c0,0,16,17.62,17.74,15.58,0,0,10.85-58.85,15.2-105.45-.44-.38,6.76-66.37,16.44-78.75"/></g></g></svg>